<svg width="1796" height="717" viewBox="0 0 1796 717" fill="none" xmlns="http://www.w3.org/2000/svg">
<path d="M1791.87 534.339C1792.34 607.445 1744.33 677.066 1674.07 699.556C1638.61 710.907 1599.57 710.629 1564.24 698.922C1529.54 687.427 1495.53 663.762 1480.28 629.591C1465.87 597.295 1472.51 551.985 1507.27 535.632C1534.08 523.028 1568.5 531.488 1589.42 551.431C1614.01 574.897 1615.86 612.434 1603.51 642.499C1589.19 677.383 1557.88 700.308 1521.53 708.412C1450.72 724.21 1376.93 688.826 1332.57 634.343C1311.1 607.986 1295.7 576.574 1288.93 543.235C1284.18 519.913 1281.26 496.341 1275.97 473.085C1263.38 417.652 1256.5 361.705 1257.54 304.714C1258.69 240.953 1280.28 174.895 1266.34 111.451C1253.49 52.9556 1199.39 17.9403 1143.66 5.74505C1089.6 -6.08067 1028.52 3.18457 986.047 40.4699C931.21 88.6175 929.676 167.121 898.707 228.784C883.844 258.375 860.174 288.493 826.388 296.663C799.016 303.275 764.529 296.003 747.326 272.22C723.471 239.237 749.917 200.342 764.833 169.84C775.69 147.641 781.508 119.845 770.162 96.5497C758.632 72.8719 730.624 69.9682 710.829 85.4367C685.282 105.406 679.265 138.956 658.742 162.779C647.648 175.661 631.33 184.464 614.087 178.934C598.259 173.852 587.772 159.202 580.407 145.12C566.417 118.367 562.661 86.6509 541.001 64.0818C523.533 45.8812 496.24 43.4395 478.045 62.0756C458.131 82.4539 455.248 111.939 447.935 137.979C440.596 164.086 416.94 208.406 383.022 190.892C361.164 179.607 358.545 148.116 352.939 127.025C347.345 105.96 337.679 81.8335 313.678 76.9765C283.794 70.9317 258.405 95.4674 248.871 121.349C242.616 138.322 240.99 156.629 239.628 174.526C238.067 195.023 236.798 215.533 235.237 236.03C232.077 277.737 227.846 319.562 217.981 360.292C200.724 431.59 162.985 499.548 97.6087 537.097C68.5966 553.754 35.8159 562.24 2.32108 559.508C-0.217802 559.297 -0.204579 563.257 2.32108 563.468C70.2099 569.011 131.394 528.782 170.694 476.187C218.655 412.003 231.31 330.029 237.895 252.237C239.72 230.658 241.095 209.039 242.629 187.434C244.084 167.055 244.97 146.176 251.251 126.576C257.492 107.135 270.068 89.9241 289.916 82.9158C306.921 76.9238 324.773 81.3452 335.603 95.9558C350.916 116.611 350.995 144.75 360.132 168.058C368.013 188.133 386.672 204.684 409.601 196.567C436.206 187.156 448.755 153.831 454.164 128.793C459.903 102.238 468.881 60.2938 500.551 53.5759C538.053 45.6173 556.195 91.7059 565.451 119.356C573.795 144.262 588.103 178.142 617.221 183.804C647.621 189.704 667.232 161.301 679.357 137.979C687.556 122.22 694.736 106.145 707.656 93.4613C720.39 80.9625 739.775 73.5582 755.775 85.0275C782.407 104.126 772.053 146.466 760.06 170.487C745.752 199.14 723.722 232.823 738.863 265.621C749.455 288.573 774.883 300.543 799.055 302.589C829.139 305.136 855.903 291.608 875.91 269.752C927.401 213.5 923.739 130.166 966.04 68.9124C1003.41 14.8783 1073.31 -3.26943 1135.7 8.17354C1167.52 14.0072 1198.41 27.2848 1223.46 47.927C1249.63 69.4931 1262.61 99.7173 1265.62 132.99C1268.71 167.2 1263.63 201.675 1259.51 235.581C1255.05 272.101 1252.87 307.868 1254.36 344.665C1255.58 374.692 1258.18 404.678 1263.63 434.256C1267.48 455.109 1272.81 475.646 1277.01 496.433C1282.9 525.522 1285.32 554.638 1296.86 582.341C1309.4 612.407 1328.72 639.556 1352.84 661.479C1402.85 706.947 1479.13 731.879 1544.3 705.508C1574.08 693.458 1597.56 670.295 1608.71 640.058C1618.73 612.869 1617.67 580.111 1599.37 556.552C1583.4 535.989 1556.15 524.374 1530.24 525.984C1501.31 527.779 1478.59 547.273 1471.46 575.28C1452.98 647.924 1530.85 700.665 1593.3 709.864C1663.6 720.211 1733.19 688.285 1769.98 627.467C1786.95 599.407 1796.06 567.124 1795.85 534.339C1795.82 531.792 1791.85 531.779 1791.87 534.339Z" fill="white"/>
</svg>
