<svg width="1880" height="967" viewBox="0 0 1880 967" fill="none" xmlns="http://www.w3.org/2000/svg">
<g clip-path="url(#clip0_583_4222)">
<path d="M1849.84 529.164C1860.81 601.444 1823.3 677.239 1757 709.586C1723.53 725.912 1684.86 731.244 1648.21 724.732C1612.22 718.339 1575.17 699.804 1555.17 668.178C1536.27 638.286 1536.33 592.492 1568.39 571.317C1593.1 554.993 1628.38 558.422 1651.95 575.154C1679.66 594.845 1686.88 631.726 1678.98 663.254C1669.81 699.832 1642.12 727.017 1607.31 740.258C1539.5 766.062 1461.39 741.641 1409.67 694.095C1384.64 671.093 1364.88 642.219 1353.4 610.198C1345.35 587.8 1339.07 564.892 1330.5 542.637C1310.08 489.586 1295.24 435.206 1288.07 378.658C1280.06 315.393 1291.94 246.919 1269.03 186.134C1247.91 130.091 1189.35 103.208 1132.44 99.1435C1077.24 95.2039 1018.13 113.145 981.45 156.144C934.096 211.668 943.852 289.578 922.06 355.049C911.6 386.468 892.502 419.673 860.239 432.611C834.1 443.086 798.927 440.842 778.486 419.775C750.142 390.561 770.728 348.27 781.109 315.943C788.665 292.414 790.431 264.071 775.857 242.647C761.045 220.87 732.911 222.019 715.543 240.17C693.128 263.601 691.992 297.668 675.104 324.191C665.974 338.533 651.09 349.588 633.231 346.592C616.837 343.836 604.356 330.844 595.044 317.965C577.357 293.499 569.085 262.651 544.409 243.427C524.508 227.923 497.147 229.427 481.817 250.483C465.035 273.51 466.417 303.103 462.92 329.924C459.407 356.814 442.36 404.072 406.279 391.61C383.027 383.582 375.913 352.793 367.335 332.726C358.774 312.683 345.743 290.195 321.294 288.835C290.851 287.145 269.249 315.072 263.531 342.055C259.779 359.751 260.798 378.101 262.021 396.008C263.42 416.516 265.11 436.996 266.509 457.505C269.371 499.233 271.19 541.233 267.278 582.958C260.439 655.994 232.851 728.668 173.545 775.217C147.226 795.867 116.004 808.974 82.464 811.081C79.9211 811.236 80.5028 815.153 83.0326 814.999C151.014 810.735 205.787 762.136 237.125 704.442C275.372 634.036 276.122 551.093 271.467 473.163C270.174 451.545 268.43 429.953 266.845 408.351C265.358 387.975 263.236 367.184 266.637 346.886C270.022 326.75 279.995 307.912 298.631 298.125C314.6 289.753 332.901 291.565 345.717 304.469C363.837 322.711 367.957 350.547 380.347 372.301C391.03 391.036 411.871 404.735 433.397 393.41C458.375 380.276 466.008 345.493 467.765 319.939C469.63 292.835 472.492 250.036 502.869 238.839C538.839 225.577 563.412 268.582 576.544 294.617C588.378 318.066 607.403 349.54 637.032 350.961C667.965 352.434 683.293 321.509 691.943 296.688C697.794 279.915 702.591 262.975 713.555 248.567C724.362 234.369 742.483 224.258 759.964 233.31C789.063 248.385 784.897 291.774 776.478 317.268C766.433 347.68 749.469 384.177 769.163 414.46C782.941 435.653 809.826 443.848 834.041 442.401C864.178 440.601 888.722 423.369 905.383 398.866C948.262 335.803 932.669 253.858 965.735 187.165C994.957 128.324 1061.52 100.326 1124.91 102.69C1157.25 103.892 1189.72 112.596 1217.47 129.427C1246.47 147.011 1263.66 175.057 1271.41 207.554C1279.38 240.965 1279.31 275.811 1280.1 309.959C1280.93 346.74 1283.91 382.45 1290.67 418.651C1296.19 448.192 1303.07 477.493 1312.71 505.982C1319.51 526.066 1327.74 545.625 1334.88 565.593C1344.89 593.535 1351.46 622.001 1366.86 647.76C1383.59 675.713 1406.61 699.806 1433.62 718.038C1489.65 755.852 1568.72 769.57 1629.42 734.114C1657.16 717.912 1677.08 691.616 1683.77 660.091C1689.78 631.745 1684.03 599.478 1662.54 578.792C1643.77 560.736 1615.14 553.156 1589.73 558.47C1561.36 564.401 1541.67 586.956 1538.64 615.696C1530.78 690.242 1615.42 731.252 1678.55 731.386C1749.6 731.531 1813.89 689.94 1841.56 624.469C1854.32 594.264 1858.7 561.007 1853.78 528.593C1853.39 526.076 1849.46 526.632 1849.84 529.164Z" fill="white"/>
</g>
<defs>
<clipPath id="clip0_583_4222">
<rect width="1795.4" height="715.337" fill="white" transform="translate(0.382812 258.548) rotate(-8.25717)"/>
</clipPath>
</defs>
</svg>
